# xmcd
#
# Track frame offsets: 
#        150
#        15665
#        36035
#        48660
#        61765
#        74553
#        89628
#        102755
#        119025
#        134223
#
# Disc length: 1979 seconds
#
# Revision: 2
# Processed by: cddbd v1.5.2PL0 Copyright (c) Steve Scherf et al.
# Submitted via: ExactAudioCopy v0.99pb3
#
DISCID=9607b90a
DTITLE=Johnny Cash - Wanted Man
DYEAR=1994
DGENRE=Country
TTITLE0=The Night Hank Williams Came To Town
TTITLE1=Let Him Roll
TTITLE2=My Ship Will Sail
TTITLE3=That Old Wheel
TTITLE4=Ballad Of A Tennage Queen
TTITLE5=Beans For BreakFast
TTITLE6=Wanted Man
TTITLE7=The Greatest Cowboy Of Them All
TTITLE8=Goin' By The Book
TTITLE9=I'll Go Somewhere And Sing My Songs Again
EXTD=
EXTT0=
EXTT1=
EXTT2=
EXTT3=
EXTT4=
EXTT5=
EXTT6=
EXTT7=
EXTT8=
EXTT9=
PLAYORDER=
